# xmcd CD database file
#
# Track frame offsets:
#	150
#	20353
#	41203
#	63848
#	82649
#	102285
#	122826
#	134638
#	154219
#	174981
#	184664
#
# Disc length: 2715 seconds
#
# Revision: 8
# Processed by: cddbd v1.5.2PL0 Copyright (c) Steve Scherf et al.
# Submitted via: CDex 1.70beta3
#
DISCID=890a990b
DTITLE=SYNC.ART'S - 天河 -tenga-
DYEAR=2010
DGENRE=東方アレンジ
TTITLE0=風の投影
TTITLE1=Absolute Demolition
TTITLE2=Sword of Valiant
TTITLE3=BICHROME -Another color-
TTITLE4=闇と光の間の
TTITLE5=薔薇薔薇人体模型
TTITLE6=wandering girl
TTITLE7=Emotional Rule -dark white-
TTITLE8=ツキヨニサラバ
TTITLE9=夢現の海空
TTITLE10=Sword of Valiant -dark power-
EXTD=YEAR: 2010
EXTT0=
EXTT1=
EXTT2=
EXTT3=
EXTT4=
EXTT5=
EXTT6=
EXTT7=
EXTT8=
EXTT9=
EXTT10=
PLAYORDER=
